<mxfile host="Electron" agent="Mozilla/5.0 (X11; Linux x86_64) AppleWebKit/537.36 (KHTML, like Gecko) draw.io/24.7.8 Chrome/128.0.6613.36 Electron/32.0.1 Safari/537.36" version="24.7.8">
  <diagram name="Page-1" id="Cs3U6vmQaW-hqhJtGHbV">
    <mxGraphModel dx="1434" dy="843" grid="1" gridSize="10" guides="1" tooltips="1" connect="1" arrows="1" fold="1" page="1" pageScale="1" pageWidth="850" pageHeight="1100" math="0" shadow="0">
      <root>
        <mxCell id="0" />
        <mxCell id="1" parent="0" />
        <mxCell id="moTu0__wBKg7ALYjW3-5-6" style="rounded=0;orthogonalLoop=1;jettySize=auto;html=1;entryX=0;entryY=0.75;entryDx=0;entryDy=0;strokeWidth=4;curved=1;edgeStyle=orthogonalEdgeStyle;shadow=1;dashed=1;dashPattern=1 1;" edge="1" parent="1" source="moTu0__wBKg7ALYjW3-5-3" target="moTu0__wBKg7ALYjW3-5-5">
          <mxGeometry relative="1" as="geometry" />
        </mxCell>
        <mxCell id="moTu0__wBKg7ALYjW3-5-3" value="" style="shape=image;verticalLabelPosition=bottom;labelBackgroundColor=default;verticalAlign=top;aspect=fixed;imageAspect=0;image=data:image/svg+xml,PHN2ZyB4bWxucz0iaHR0cDovL3d3dy53My5vcmcvMjAwMC9zdmciIGlkPSJlbW9qaSIgdmlld0JveD0iMCAwIDcyIDcyIiBoZWlnaHQ9IjgwMHB4IiB3aWR0aD0iODAwcHgiPiYjeGE7ICA8ZyBpZD0iY29sb3IiPiYjeGE7ICAgIDxwb2x5Z29uIHBvaW50cz0iOCw1NiA2Myw1NiA2Myw1MSA2Nyw0Ni45MDQyIDY3LDI4LjAwMDUgNjMsMjQgNjMsMTYgOCwxNiIgc3Ryb2tlPSJub25lIiBmaWxsPSIjNUM5RTMxIi8+JiN4YTsgICAgPHBvbHlsaW5lIHBvaW50cz0iNjMsNTYgNjMsNTEgNjcsNDYuOTA0MiA2NywyOC4wMDA1IDYzLDI0IDYzLDE2IDU2LjE2NzEsMTYiIHN0cm9rZT0ibm9uZSIgZmlsbD0iIzVDOUUzMSIvPiYjeGE7ICAgIDxwb2x5Z29uIHBvaW50cz0iMzEuMzMzLDU2IDgsNTYgOCwxNiA1Ni4xNjcxLDE2IiBzdHJva2U9Im5vbmUiIGZpbGw9IiNCMUNDMzMiLz4mI3hhOyAgICA8cmVjdCBzdHJva2U9Im5vbmUiIGZpbGw9IiNCMUNDMzMiIGhlaWdodD0iOSIgd2lkdGg9IjIiIHk9IjIyIiB4PSI2Ii8+JiN4YTsgICAgPHJlY3Qgc3Ryb2tlLXdpZHRoPSIyIiBzdHJva2UtbWl0ZXJsaW1pdD0iMTAiIHN0cm9rZS1saW5lam9pbj0icm91bmQiIHN0cm9rZS1saW5lY2FwPSJyb3VuZCIgc3Ryb2tlPSJub25lIiBmaWxsPSIjQjFDQzMzIiBoZWlnaHQ9IjQiIHdpZHRoPSIyOCIgeT0iNDYiIHg9IjI5Ii8+JiN4YTsgICAgPHJlY3Qgc3Ryb2tlLXdpZHRoPSIyIiBzdHJva2UtbWl0ZXJsaW1pdD0iMTAiIHN0cm9rZS1saW5lam9pbj0icm91bmQiIHN0cm9rZS1saW5lY2FwPSJyb3VuZCIgc3Ryb2tlPSJub25lIiBmaWxsPSIjQjFDQzMzIiBoZWlnaHQ9IjQiIHdpZHRoPSIzMyIgeT0iMjIiIHg9IjI0Ii8+JiN4YTsgIDwvZz4mI3hhOyAgPGcgaWQ9ImhhaXIiLz4mI3hhOyAgPGcgaWQ9InNraW4iLz4mI3hhOyAgPGcgaWQ9InNraW4tc2hhZG93Ii8+JiN4YTsgIDxnIGlkPSJsaW5lIj4mI3hhOyAgICA8cG9seWxpbmUgcG9pbnRzPSI4LDIyIDgsMTYgNjMsMTYgNjMsMjQgNjcsMjguMDAwNSA2Nyw0Ni45MDQyIDYzLDUxIDYzLDU2IDgsNTYgOCwzMSIgc3Ryb2tlLXdpZHRoPSIyIiBzdHJva2UtbWl0ZXJsaW1pdD0iMTAiIHN0cm9rZS1saW5lam9pbj0icm91bmQiIHN0cm9rZS1saW5lY2FwPSJyb3VuZCIgc3Ryb2tlPSIjMDAwMDAwIiBmaWxsPSJub25lIi8+JiN4YTsgICAgPHJlY3Qgc3Ryb2tlLXdpZHRoPSIyIiBzdHJva2UtbWl0ZXJsaW1pdD0iMTAiIHN0cm9rZS1saW5lam9pbj0icm91bmQiIHN0cm9rZS1saW5lY2FwPSJyb3VuZCIgc3Ryb2tlPSIjMDAwMDAwIiBmaWxsPSJub25lIiBoZWlnaHQ9IjQiIHdpZHRoPSIyOCIgeT0iNDYiIHg9IjI5Ii8+JiN4YTsgICAgPHJlY3Qgc3Ryb2tlLXdpZHRoPSIyIiBzdHJva2UtbWl0ZXJsaW1pdD0iMTAiIHN0cm9rZS1saW5lam9pbj0icm91bmQiIHN0cm9rZS1saW5lY2FwPSJyb3VuZCIgc3Ryb2tlPSIjMDAwMDAwIiBmaWxsPSJub25lIiBoZWlnaHQ9IjQiIHdpZHRoPSIzMyIgeT0iMjIiIHg9IjI0Ii8+JiN4YTsgICAgPHBvbHlsaW5lIHBvaW50cz0iMTgsMzAgMTgsMjIgNSwyMiA1LDMxIDExLjEyNTIsMzEiIHN0cm9rZS13aWR0aD0iMiIgc3Ryb2tlLW1pdGVybGltaXQ9IjEwIiBzdHJva2UtbGluZWpvaW49InJvdW5kIiBzdHJva2UtbGluZWNhcD0icm91bmQiIHN0cm9rZT0iIzAwMDAwMCIgZmlsbD0ibm9uZSIvPiYjeGE7ICAgIDxwb2x5bGluZSBwb2ludHM9IjE0LDUwIDE4LDUwIDE4LDQ2IDE0LDQ2IiBzdHJva2Utd2lkdGg9IjIiIHN0cm9rZS1taXRlcmxpbWl0PSIxMCIgc3Ryb2tlLWxpbmVqb2luPSJyb3VuZCIgc3Ryb2tlLWxpbmVjYXA9InJvdW5kIiBzdHJva2U9IiMwMDAwMDAiIGZpbGw9Im5vbmUiLz4mI3hhOyAgICA8cGF0aCBkPSJNOCwyMiIgc3Ryb2tlLXdpZHRoPSIyIiBzdHJva2UtbWl0ZXJsaW1pdD0iMTAiIHN0cm9rZS1saW5lam9pbj0icm91bmQiIHN0cm9rZS1saW5lY2FwPSJyb3VuZCIgc3Ryb2tlPSIjMDAwMDAwIiBmaWxsPSJub25lIi8+JiN4YTsgIDwvZz4mI3hhOzwvc3ZnPg==;" vertex="1" parent="1">
          <mxGeometry x="130" y="320" width="80" height="80" as="geometry" />
        </mxCell>
        <mxCell id="moTu0__wBKg7ALYjW3-5-7" value="Wifi wireless connection" style="rounded=0;orthogonalLoop=1;jettySize=auto;html=1;entryX=0;entryY=1;entryDx=0;entryDy=0;strokeWidth=4;curved=1;edgeStyle=orthogonalEdgeStyle;shadow=1;dashed=1;dashPattern=1 1;fontSize=14;fontStyle=1;horizontal=1;" edge="1" parent="1" source="moTu0__wBKg7ALYjW3-5-4" target="moTu0__wBKg7ALYjW3-5-5">
          <mxGeometry x="-0.4545" y="30" relative="1" as="geometry">
            <mxPoint x="420" y="350" as="targetPoint" />
            <mxPoint as="offset" />
          </mxGeometry>
        </mxCell>
        <mxCell id="moTu0__wBKg7ALYjW3-5-4" value="" style="shape=image;verticalLabelPosition=bottom;labelBackgroundColor=default;verticalAlign=top;aspect=fixed;imageAspect=0;image=data:image/svg+xml,PHN2ZyB4bWxucz0iaHR0cDovL3d3dy53My5vcmcvMjAwMC9zdmciIGlkPSJlbW9qaSIgdmlld0JveD0iMCAwIDcyIDcyIiBoZWlnaHQ9IjgwMHB4IiB3aWR0aD0iODAwcHgiPiYjeGE7ICA8ZyBpZD0iY29sb3IiPiYjeGE7ICAgIDxwb2x5Z29uIHBvaW50cz0iOCw1NiA2Myw1NiA2Myw1MSA2Nyw0Ni45MDQyIDY3LDI4LjAwMDUgNjMsMjQgNjMsMTYgOCwxNiIgc3Ryb2tlPSJub25lIiBmaWxsPSIjNUM5RTMxIi8+JiN4YTsgICAgPHBvbHlsaW5lIHBvaW50cz0iNjMsNTYgNjMsNTEgNjcsNDYuOTA0MiA2NywyOC4wMDA1IDYzLDI0IDYzLDE2IDU2LjE2NzEsMTYiIHN0cm9rZT0ibm9uZSIgZmlsbD0iIzVDOUUzMSIvPiYjeGE7ICAgIDxwb2x5Z29uIHBvaW50cz0iMzEuMzMzLDU2IDgsNTYgOCwxNiA1Ni4xNjcxLDE2IiBzdHJva2U9Im5vbmUiIGZpbGw9IiNCMUNDMzMiLz4mI3hhOyAgICA8cmVjdCBzdHJva2U9Im5vbmUiIGZpbGw9IiNCMUNDMzMiIGhlaWdodD0iOSIgd2lkdGg9IjIiIHk9IjIyIiB4PSI2Ii8+JiN4YTsgICAgPHJlY3Qgc3Ryb2tlLXdpZHRoPSIyIiBzdHJva2UtbWl0ZXJsaW1pdD0iMTAiIHN0cm9rZS1saW5lam9pbj0icm91bmQiIHN0cm9rZS1saW5lY2FwPSJyb3VuZCIgc3Ryb2tlPSJub25lIiBmaWxsPSIjQjFDQzMzIiBoZWlnaHQ9IjQiIHdpZHRoPSIyOCIgeT0iNDYiIHg9IjI5Ii8+JiN4YTsgICAgPHJlY3Qgc3Ryb2tlLXdpZHRoPSIyIiBzdHJva2UtbWl0ZXJsaW1pdD0iMTAiIHN0cm9rZS1saW5lam9pbj0icm91bmQiIHN0cm9rZS1saW5lY2FwPSJyb3VuZCIgc3Ryb2tlPSJub25lIiBmaWxsPSIjQjFDQzMzIiBoZWlnaHQ9IjQiIHdpZHRoPSIzMyIgeT0iMjIiIHg9IjI0Ii8+JiN4YTsgIDwvZz4mI3hhOyAgPGcgaWQ9ImhhaXIiLz4mI3hhOyAgPGcgaWQ9InNraW4iLz4mI3hhOyAgPGcgaWQ9InNraW4tc2hhZG93Ii8+JiN4YTsgIDxnIGlkPSJsaW5lIj4mI3hhOyAgICA8cG9seWxpbmUgcG9pbnRzPSI4LDIyIDgsMTYgNjMsMTYgNjMsMjQgNjcsMjguMDAwNSA2Nyw0Ni45MDQyIDYzLDUxIDYzLDU2IDgsNTYgOCwzMSIgc3Ryb2tlLXdpZHRoPSIyIiBzdHJva2UtbWl0ZXJsaW1pdD0iMTAiIHN0cm9rZS1saW5lam9pbj0icm91bmQiIHN0cm9rZS1saW5lY2FwPSJyb3VuZCIgc3Ryb2tlPSIjMDAwMDAwIiBmaWxsPSJub25lIi8+JiN4YTsgICAgPHJlY3Qgc3Ryb2tlLXdpZHRoPSIyIiBzdHJva2UtbWl0ZXJsaW1pdD0iMTAiIHN0cm9rZS1saW5lam9pbj0icm91bmQiIHN0cm9rZS1saW5lY2FwPSJyb3VuZCIgc3Ryb2tlPSIjMDAwMDAwIiBmaWxsPSJub25lIiBoZWlnaHQ9IjQiIHdpZHRoPSIyOCIgeT0iNDYiIHg9IjI5Ii8+JiN4YTsgICAgPHJlY3Qgc3Ryb2tlLXdpZHRoPSIyIiBzdHJva2UtbWl0ZXJsaW1pdD0iMTAiIHN0cm9rZS1saW5lam9pbj0icm91bmQiIHN0cm9rZS1saW5lY2FwPSJyb3VuZCIgc3Ryb2tlPSIjMDAwMDAwIiBmaWxsPSJub25lIiBoZWlnaHQ9IjQiIHdpZHRoPSIzMyIgeT0iMjIiIHg9IjI0Ii8+JiN4YTsgICAgPHBvbHlsaW5lIHBvaW50cz0iMTgsMzAgMTgsMjIgNSwyMiA1LDMxIDExLjEyNTIsMzEiIHN0cm9rZS13aWR0aD0iMiIgc3Ryb2tlLW1pdGVybGltaXQ9IjEwIiBzdHJva2UtbGluZWpvaW49InJvdW5kIiBzdHJva2UtbGluZWNhcD0icm91bmQiIHN0cm9rZT0iIzAwMDAwMCIgZmlsbD0ibm9uZSIvPiYjeGE7ICAgIDxwb2x5bGluZSBwb2ludHM9IjE0LDUwIDE4LDUwIDE4LDQ2IDE0LDQ2IiBzdHJva2Utd2lkdGg9IjIiIHN0cm9rZS1taXRlcmxpbWl0PSIxMCIgc3Ryb2tlLWxpbmVqb2luPSJyb3VuZCIgc3Ryb2tlLWxpbmVjYXA9InJvdW5kIiBzdHJva2U9IiMwMDAwMDAiIGZpbGw9Im5vbmUiLz4mI3hhOyAgICA8cGF0aCBkPSJNOCwyMiIgc3Ryb2tlLXdpZHRoPSIyIiBzdHJva2UtbWl0ZXJsaW1pdD0iMTAiIHN0cm9rZS1saW5lam9pbj0icm91bmQiIHN0cm9rZS1saW5lY2FwPSJyb3VuZCIgc3Ryb2tlPSIjMDAwMDAwIiBmaWxsPSJub25lIi8+JiN4YTsgIDwvZz4mI3hhOzwvc3ZnPg==;" vertex="1" parent="1">
          <mxGeometry x="130" y="380" width="80" height="80" as="geometry" />
        </mxCell>
        <mxCell id="moTu0__wBKg7ALYjW3-5-11" value="Wired ethernet connection" style="edgeStyle=orthogonalEdgeStyle;rounded=0;orthogonalLoop=1;jettySize=auto;html=1;entryX=0;entryY=0.5;entryDx=0;entryDy=0;strokeWidth=4;horizontal=1;fontSize=14;fontStyle=1" edge="1" parent="1" source="moTu0__wBKg7ALYjW3-5-5" target="moTu0__wBKg7ALYjW3-5-10">
          <mxGeometry relative="1" as="geometry">
            <Array as="points">
              <mxPoint x="560" y="230" />
              <mxPoint x="560" y="420" />
            </Array>
          </mxGeometry>
        </mxCell>
        <mxCell id="moTu0__wBKg7ALYjW3-5-5" value="Wifi access point" style="image;html=1;image=img/lib/clip_art/networking/Wireless_Router_128x128.png;labelPosition=center;verticalLabelPosition=top;align=center;verticalAlign=bottom;fontSize=14;fontStyle=1" vertex="1" parent="1">
          <mxGeometry x="390" y="190" width="80" height="80" as="geometry" />
        </mxCell>
        <mxCell id="moTu0__wBKg7ALYjW3-5-9" value="" style="edgeStyle=orthogonalEdgeStyle;rounded=0;orthogonalLoop=1;jettySize=auto;html=1;entryX=0.25;entryY=1;entryDx=0;entryDy=0;curved=1;strokeWidth=4;dashed=1;dashPattern=1 1;" edge="1" parent="1" source="moTu0__wBKg7ALYjW3-5-8" target="moTu0__wBKg7ALYjW3-5-5">
          <mxGeometry relative="1" as="geometry" />
        </mxCell>
        <mxCell id="moTu0__wBKg7ALYjW3-5-8" value="" style="shape=image;verticalLabelPosition=bottom;labelBackgroundColor=default;verticalAlign=top;aspect=fixed;imageAspect=0;image=data:image/svg+xml,PHN2ZyB4bWxucz0iaHR0cDovL3d3dy53My5vcmcvMjAwMC9zdmciIGlkPSJlbW9qaSIgdmlld0JveD0iMCAwIDcyIDcyIiBoZWlnaHQ9IjgwMHB4IiB3aWR0aD0iODAwcHgiPiYjeGE7ICA8ZyBpZD0iY29sb3IiPiYjeGE7ICAgIDxwb2x5Z29uIHBvaW50cz0iOCw1NiA2Myw1NiA2Myw1MSA2Nyw0Ni45MDQyIDY3LDI4LjAwMDUgNjMsMjQgNjMsMTYgOCwxNiIgc3Ryb2tlPSJub25lIiBmaWxsPSIjNUM5RTMxIi8+JiN4YTsgICAgPHBvbHlsaW5lIHBvaW50cz0iNjMsNTYgNjMsNTEgNjcsNDYuOTA0MiA2NywyOC4wMDA1IDYzLDI0IDYzLDE2IDU2LjE2NzEsMTYiIHN0cm9rZT0ibm9uZSIgZmlsbD0iIzVDOUUzMSIvPiYjeGE7ICAgIDxwb2x5Z29uIHBvaW50cz0iMzEuMzMzLDU2IDgsNTYgOCwxNiA1Ni4xNjcxLDE2IiBzdHJva2U9Im5vbmUiIGZpbGw9IiNCMUNDMzMiLz4mI3hhOyAgICA8cmVjdCBzdHJva2U9Im5vbmUiIGZpbGw9IiNCMUNDMzMiIGhlaWdodD0iOSIgd2lkdGg9IjIiIHk9IjIyIiB4PSI2Ii8+JiN4YTsgICAgPHJlY3Qgc3Ryb2tlLXdpZHRoPSIyIiBzdHJva2UtbWl0ZXJsaW1pdD0iMTAiIHN0cm9rZS1saW5lam9pbj0icm91bmQiIHN0cm9rZS1saW5lY2FwPSJyb3VuZCIgc3Ryb2tlPSJub25lIiBmaWxsPSIjQjFDQzMzIiBoZWlnaHQ9IjQiIHdpZHRoPSIyOCIgeT0iNDYiIHg9IjI5Ii8+JiN4YTsgICAgPHJlY3Qgc3Ryb2tlLXdpZHRoPSIyIiBzdHJva2UtbWl0ZXJsaW1pdD0iMTAiIHN0cm9rZS1saW5lam9pbj0icm91bmQiIHN0cm9rZS1saW5lY2FwPSJyb3VuZCIgc3Ryb2tlPSJub25lIiBmaWxsPSIjQjFDQzMzIiBoZWlnaHQ9IjQiIHdpZHRoPSIzMyIgeT0iMjIiIHg9IjI0Ii8+JiN4YTsgIDwvZz4mI3hhOyAgPGcgaWQ9ImhhaXIiLz4mI3hhOyAgPGcgaWQ9InNraW4iLz4mI3hhOyAgPGcgaWQ9InNraW4tc2hhZG93Ii8+JiN4YTsgIDxnIGlkPSJsaW5lIj4mI3hhOyAgICA8cG9seWxpbmUgcG9pbnRzPSI4LDIyIDgsMTYgNjMsMTYgNjMsMjQgNjcsMjguMDAwNSA2Nyw0Ni45MDQyIDYzLDUxIDYzLDU2IDgsNTYgOCwzMSIgc3Ryb2tlLXdpZHRoPSIyIiBzdHJva2UtbWl0ZXJsaW1pdD0iMTAiIHN0cm9rZS1saW5lam9pbj0icm91bmQiIHN0cm9rZS1saW5lY2FwPSJyb3VuZCIgc3Ryb2tlPSIjMDAwMDAwIiBmaWxsPSJub25lIi8+JiN4YTsgICAgPHJlY3Qgc3Ryb2tlLXdpZHRoPSIyIiBzdHJva2UtbWl0ZXJsaW1pdD0iMTAiIHN0cm9rZS1saW5lam9pbj0icm91bmQiIHN0cm9rZS1saW5lY2FwPSJyb3VuZCIgc3Ryb2tlPSIjMDAwMDAwIiBmaWxsPSJub25lIiBoZWlnaHQ9IjQiIHdpZHRoPSIyOCIgeT0iNDYiIHg9IjI5Ii8+JiN4YTsgICAgPHJlY3Qgc3Ryb2tlLXdpZHRoPSIyIiBzdHJva2UtbWl0ZXJsaW1pdD0iMTAiIHN0cm9rZS1saW5lam9pbj0icm91bmQiIHN0cm9rZS1saW5lY2FwPSJyb3VuZCIgc3Ryb2tlPSIjMDAwMDAwIiBmaWxsPSJub25lIiBoZWlnaHQ9IjQiIHdpZHRoPSIzMyIgeT0iMjIiIHg9IjI0Ii8+JiN4YTsgICAgPHBvbHlsaW5lIHBvaW50cz0iMTgsMzAgMTgsMjIgNSwyMiA1LDMxIDExLjEyNTIsMzEiIHN0cm9rZS13aWR0aD0iMiIgc3Ryb2tlLW1pdGVybGltaXQ9IjEwIiBzdHJva2UtbGluZWpvaW49InJvdW5kIiBzdHJva2UtbGluZWNhcD0icm91bmQiIHN0cm9rZT0iIzAwMDAwMCIgZmlsbD0ibm9uZSIvPiYjeGE7ICAgIDxwb2x5bGluZSBwb2ludHM9IjE0LDUwIDE4LDUwIDE4LDQ2IDE0LDQ2IiBzdHJva2Utd2lkdGg9IjIiIHN0cm9rZS1taXRlcmxpbWl0PSIxMCIgc3Ryb2tlLWxpbmVqb2luPSJyb3VuZCIgc3Ryb2tlLWxpbmVjYXA9InJvdW5kIiBzdHJva2U9IiMwMDAwMDAiIGZpbGw9Im5vbmUiLz4mI3hhOyAgICA8cGF0aCBkPSJNOCwyMiIgc3Ryb2tlLXdpZHRoPSIyIiBzdHJva2UtbWl0ZXJsaW1pdD0iMTAiIHN0cm9rZS1saW5lam9pbj0icm91bmQiIHN0cm9rZS1saW5lY2FwPSJyb3VuZCIgc3Ryb2tlPSIjMDAwMDAwIiBmaWxsPSJub25lIi8+JiN4YTsgIDwvZz4mI3hhOzwvc3ZnPg==;" vertex="1" parent="1">
          <mxGeometry x="130" y="440" width="80" height="80" as="geometry" />
        </mxCell>
        <mxCell id="moTu0__wBKg7ALYjW3-5-10" value="IoP Server (Dell Optiplex)" style="image;html=1;image=img/lib/clip_art/networking/Print_Server_128x128.png;fontSize=14;fontStyle=1" vertex="1" parent="1">
          <mxGeometry x="620" y="380" width="80" height="80" as="geometry" />
        </mxCell>
        <mxCell id="moTu0__wBKg7ALYjW3-5-12" value="" style="sketch=0;pointerEvents=1;shadow=0;dashed=0;html=1;strokeColor=#001DBC;fillColor=#0050ef;aspect=fixed;labelPosition=center;verticalLabelPosition=bottom;verticalAlign=top;align=center;outlineConnect=0;shape=mxgraph.vvd.wi_fi;fontColor=#ffffff;" vertex="1" parent="1">
          <mxGeometry x="210" y="270" width="50" height="50" as="geometry" />
        </mxCell>
        <mxCell id="moTu0__wBKg7ALYjW3-5-13" value="IoP standalone modules" style="text;html=1;align=center;verticalAlign=middle;whiteSpace=wrap;rounded=0;fontStyle=1;fontSize=14;" vertex="1" parent="1">
          <mxGeometry x="10" y="400" width="110" height="37.5" as="geometry" />
        </mxCell>
        <mxCell id="moTu0__wBKg7ALYjW3-5-15" value="The Internet&amp;nbsp;" style="outlineConnect=0;dashed=0;verticalLabelPosition=bottom;verticalAlign=top;align=center;html=1;shape=mxgraph.aws3.internet_3;fillColor=#D2D3D3;gradientColor=none;fontSize=14;fontStyle=1" vertex="1" parent="1">
          <mxGeometry x="650" y="10" width="109.5" height="74.38" as="geometry" />
        </mxCell>
        <mxCell id="moTu0__wBKg7ALYjW3-5-16" style="edgeStyle=orthogonalEdgeStyle;rounded=0;orthogonalLoop=1;jettySize=auto;html=1;entryX=0;entryY=0.7;entryDx=0;entryDy=0;entryPerimeter=0;fillColor=#e51400;strokeColor=#B20000;strokeWidth=4;dashed=1;" edge="1" parent="1" source="moTu0__wBKg7ALYjW3-5-5" target="moTu0__wBKg7ALYjW3-5-15">
          <mxGeometry relative="1" as="geometry" />
        </mxCell>
        <mxCell id="moTu0__wBKg7ALYjW3-5-17" value="" style="shape=cross;rotation=-45;fillColor=#e51400;fontColor=#ffffff;strokeColor=#B20000;fontSize=14;fontStyle=1;horizontal=1;labelPosition=left;verticalLabelPosition=middle;align=right;verticalAlign=middle;html=1;whiteSpace=wrap;" vertex="1" parent="1">
          <mxGeometry x="540" y="48" width="40" height="40" as="geometry" />
        </mxCell>
        <mxCell id="moTu0__wBKg7ALYjW3-5-18" value="No need for internet connection" style="text;html=1;align=center;verticalAlign=middle;whiteSpace=wrap;rounded=0;fontSize=14;fontStyle=1" vertex="1" parent="1">
          <mxGeometry x="390" y="45.5" width="160" height="45" as="geometry" />
        </mxCell>
        <mxCell id="moTu0__wBKg7ALYjW3-5-20" value="Speaker output&amp;nbsp;" style="pointerEvents=1;verticalLabelPosition=bottom;shadow=0;dashed=0;align=center;html=1;verticalAlign=top;shape=mxgraph.electrical.electro-mechanical.loudspeaker;" vertex="1" parent="1">
          <mxGeometry x="810" y="371.75" width="40" height="80" as="geometry" />
        </mxCell>
        <mxCell id="moTu0__wBKg7ALYjW3-5-21" style="edgeStyle=orthogonalEdgeStyle;rounded=0;orthogonalLoop=1;jettySize=auto;html=1;entryX=0;entryY=0.6;entryDx=0;entryDy=0;entryPerimeter=0;endArrow=none;endFill=0;" edge="1" parent="1" source="moTu0__wBKg7ALYjW3-5-10" target="moTu0__wBKg7ALYjW3-5-20">
          <mxGeometry relative="1" as="geometry" />
        </mxCell>
        <mxCell id="moTu0__wBKg7ALYjW3-5-24" value="Wired audio jack" style="edgeStyle=orthogonalEdgeStyle;rounded=0;orthogonalLoop=1;jettySize=auto;html=1;exitX=0;exitY=0.4;exitDx=0;exitDy=0;exitPerimeter=0;entryX=0.974;entryY=0.306;entryDx=0;entryDy=0;entryPerimeter=0;endArrow=none;endFill=0;" edge="1" parent="1" source="moTu0__wBKg7ALYjW3-5-20" target="moTu0__wBKg7ALYjW3-5-10">
          <mxGeometry x="-0.1132" y="8" relative="1" as="geometry">
            <mxPoint as="offset" />
          </mxGeometry>
        </mxCell>
      </root>
    </mxGraphModel>
  </diagram>
</mxfile>
